<svg width="50" height="49" viewBox="0 0 50 49" fill="none" xmlns="http://www.w3.org/2000/svg">
<rect width="50" height="49" rx="10" fill="url(#paint0_linear_26_204)"/>
<path d="M20 19.2667C19.6583 19.2667 19.375 18.9833 19.375 18.6417V17.1833C19.375 16.8417 19.6583 16.5583 20 16.5583C20.3417 16.5583 20.625 16.8417 20.625 17.1833V18.6417C20.625 18.9917 20.3417 19.2667 20 19.2667Z" fill="#0C0C0C"/>
<path d="M23.3333 19.2667C22.9916 19.2667 22.7083 18.9833 22.7083 18.6417V17.1833C22.7083 16.8417 22.9916 16.5583 23.3333 16.5583C23.675 16.5583 23.9583 16.8417 23.9583 17.1833V18.6417C23.9583 18.9917 23.675 19.2667 23.3333 19.2667Z" fill="#0C0C0C"/>
<path d="M26.6667 19.2667C26.325 19.2667 26.0417 18.9833 26.0417 18.6417V17.1833C26.0417 16.8417 26.325 16.5583 26.6667 16.5583C27.0084 16.5583 27.2917 16.8417 27.2917 17.1833V18.6417C27.2917 18.9917 27.0084 19.2667 26.6667 19.2667Z" fill="#0C0C0C"/>
<path d="M33.5416 26.0417C33.5416 23.8583 31.85 22.0917 29.7166 21.9083C29.1 20.9 28 20.2167 26.7333 20.2167H20.5916C18.6583 20.2167 17.0833 21.7917 17.0833 23.725V24.1667H30.2416V23.725C30.2416 23.5667 30.2166 23.4083 30.1916 23.2583C31.4 23.6167 32.2916 24.7167 32.2916 26.0417C32.2916 27.35 31.425 28.4417 30.2416 28.8083V25H17.0833V29.825C17.0833 31.7583 18.6583 33.3333 20.5916 33.3333H26.7333C28.5666 33.3333 30.0583 31.9167 30.2083 30.1167C32.1083 29.7333 33.5416 28.05 33.5416 26.0417Z" fill="#0C0C0C"/>
<defs>
<linearGradient id="paint0_linear_26_204" x1="0" y1="24.5" x2="50" y2="24.5" gradientUnits="userSpaceOnUse">
<stop stop-color="#A18CD1"/>
<stop offset="1" stop-color="#FBC2EB"/>
</linearGradient>
</defs>
</svg>
